<svg width="1440" height="512" viewBox="0 0 1440 512" fill="none" xmlns="http://www.w3.org/2000/svg">
<g opacity="0.1">
<line y1="0.5" x2="1440" y2="0.5" stroke="#FCFF80"/>
<line y1="30.5" x2="1440" y2="30.5" stroke="#FCFF80"/>
<line y1="60.5" x2="1440" y2="60.5" stroke="#FCFF80"/>
<line y1="90.5" x2="1440" y2="90.5" stroke="#FCFF80"/>
<line y1="120.5" x2="1440" y2="120.5" stroke="#FCFF80"/>
<line y1="150.5" x2="1440" y2="150.5" stroke="#FCFF80"/>
<line y1="180.5" x2="1440" y2="180.5" stroke="#FCFF80"/>
<line y1="210.5" x2="1440" y2="210.5" stroke="#FCFF80"/>
<line y1="240.5" x2="1440" y2="240.5" stroke="#FCFF80"/>
<line y1="270.5" x2="1440" y2="270.5" stroke="#FCFF80"/>
<line y1="300.5" x2="1440" y2="300.5" stroke="#FCFF80"/>
<line y1="330.5" x2="1440" y2="330.5" stroke="#FCFF80"/>
<line y1="360.5" x2="1440" y2="360.5" stroke="#FCFF80"/>
<line y1="390.5" x2="1440" y2="390.5" stroke="#FCFF80"/>
<line y1="420.5" x2="1440" y2="420.5" stroke="#FCFF80"/>
<line y1="450.5" x2="1440" y2="450.5" stroke="#FCFF80"/>
<line y1="480.5" x2="1440" y2="480.5" stroke="#FCFF80"/>
<line y1="510.5" x2="1440" y2="510.5" stroke="#FCFF80"/>
<line x1="1440" y1="1.00586" x2="1440" y2="511.006" stroke="#FCFF80"/>
<line x1="1409" y1="1.00586" x2="1409" y2="511.006" stroke="#FCFF80"/>
<line x1="1378" y1="1.00586" x2="1378" y2="511.006" stroke="#FCFF80"/>
<line x1="1347" y1="1.00586" x2="1347" y2="511.006" stroke="#FCFF80"/>
<line x1="1316" y1="1.00586" x2="1316" y2="511.006" stroke="#FCFF80"/>
<line x1="1285" y1="1.00586" x2="1285" y2="511.006" stroke="#FCFF80"/>
<line x1="1254" y1="1.00586" x2="1254" y2="511.006" stroke="#FCFF80"/>
<line x1="1223" y1="1.00586" x2="1223" y2="511.006" stroke="#FCFF80"/>
<line x1="1192" y1="1.00586" x2="1192" y2="511.006" stroke="#FCFF80"/>
<line x1="1161" y1="1.00586" x2="1161" y2="511.006" stroke="#FCFF80"/>
<line x1="1130" y1="1.00586" x2="1130" y2="511.006" stroke="#FCFF80"/>
<line x1="1099" y1="1.00586" x2="1099" y2="511.006" stroke="#FCFF80"/>
<line x1="1068" y1="1.00586" x2="1068" y2="511.006" stroke="#FCFF80"/>
<line x1="1037" y1="1.00586" x2="1037" y2="511.006" stroke="#FCFF80"/>
<line x1="1006" y1="1.00586" x2="1006" y2="511.006" stroke="#FCFF80"/>
<line x1="975.002" y1="1.00586" x2="975.002" y2="511.006" stroke="#FCFF80"/>
<line x1="944.002" y1="1.00586" x2="944.002" y2="511.006" stroke="#FCFF80"/>
<line x1="913.002" y1="1.00586" x2="913.002" y2="511.006" stroke="#FCFF80"/>
<line x1="882.002" y1="1.00586" x2="882.002" y2="511.006" stroke="#FCFF80"/>
<line x1="851.002" y1="1.00586" x2="851.002" y2="511.006" stroke="#FCFF80"/>
<line x1="820.002" y1="1.00586" x2="820.002" y2="511.006" stroke="#FCFF80"/>
<line x1="789.002" y1="1.00586" x2="789.002" y2="511.006" stroke="#FCFF80"/>
<line x1="758.002" y1="1.00586" x2="758.002" y2="511.006" stroke="#FCFF80"/>
<line x1="727.002" y1="1.00586" x2="727.002" y2="511.006" stroke="#FCFF80"/>
<line x1="696.002" y1="1.00586" x2="696.002" y2="511.006" stroke="#FCFF80"/>
<line x1="665.002" y1="1.00586" x2="665.002" y2="511.006" stroke="#FCFF80"/>
<line x1="634.002" y1="1.00586" x2="634.002" y2="511.006" stroke="#FCFF80"/>
<line x1="603.002" y1="1.00586" x2="603.002" y2="511.006" stroke="#FCFF80"/>
<line x1="572.002" y1="1.00586" x2="572.002" y2="511.006" stroke="#FCFF80"/>
<line x1="541.002" y1="1.00586" x2="541.002" y2="511.006" stroke="#FCFF80"/>
<line x1="510.002" y1="1.00586" x2="510.002" y2="511.006" stroke="#FCFF80"/>
<line x1="479.002" y1="1.00586" x2="479.002" y2="511.006" stroke="#FCFF80"/>
<line x1="448.002" y1="1.00586" x2="448.002" y2="511.006" stroke="#FCFF80"/>
<line x1="417.002" y1="1.00586" x2="417.002" y2="511.006" stroke="#FCFF80"/>
<line x1="386.002" y1="1.00586" x2="386.002" y2="511.006" stroke="#FCFF80"/>
<line x1="355.002" y1="1.00586" x2="355.002" y2="511.006" stroke="#FCFF80"/>
<line x1="324.002" y1="1.00586" x2="324.002" y2="511.006" stroke="#FCFF80"/>
<line x1="293.002" y1="1.00586" x2="293.002" y2="511.006" stroke="#FCFF80"/>
<line x1="262.002" y1="1.00586" x2="262.002" y2="511.006" stroke="#FCFF80"/>
<line x1="231.002" y1="1.00586" x2="231.002" y2="511.006" stroke="#FCFF80"/>
<line x1="200.002" y1="1.00586" x2="200.002" y2="511.006" stroke="#FCFF80"/>
<line x1="169.002" y1="1.00586" x2="169.002" y2="511.006" stroke="#FCFF80"/>
<line x1="138.002" y1="1.00586" x2="138.002" y2="511.006" stroke="#FCFF80"/>
<line x1="107.002" y1="1.00586" x2="107.002" y2="511.006" stroke="#FCFF80"/>
<line x1="76.0017" y1="1.00586" x2="76.0016" y2="511.006" stroke="#FCFF80"/>
<line x1="45.0017" y1="1.00586" x2="45.0016" y2="511.006" stroke="#FCFF80"/>
<line x1="14.0017" y1="1.00586" x2="14.0016" y2="511.006" stroke="#FCFF80"/>
</g>
</svg>
